<svg xmlns="http://www.w3.org/2000/svg" xmlns:svg="http://www.w3.org/2000/svg" id="svg2" width="40" height="40" version="1.1"><metadata id="metadata7"/><g id="layer1" transform="translate(0,-1012.3622)"><flowRoot id="flowRoot2998" transform="translate(7.1192017,999.83156)" xml:space="preserve" style="font-size:10px;font-style:normal;font-variant:normal;font-weight:400;font-stretch:normal;line-height:125%;letter-spacing:0;word-spacing:0;fill:#fff;fill-opacity:1;stroke:none;font-family:Open Sans;-inkscape-font-specification:Open Sans"><flowRegion id="flowRegion3000"><rect id="rect3002" width="51.793" height="62.376" x="8.207" y="10.624" style="fill:#fff;fill-opacity:1"/></flowRegion><flowPara id="flowPara3004" style="font-size:36px;fill:#fff;fill-opacity:1;font-family:Sail Sans Pro Light;-inkscape-font-specification:Sail Sans Pro Light">!</flowPara></flowRoot><flowRoot id="flowRoot3800" transform="translate(0,1004.3622)" xml:space="preserve" style="font-size:10px;font-style:normal;font-variant:normal;font-weight:400;font-stretch:normal;line-height:125%;letter-spacing:0;word-spacing:0;fill:#000;fill-opacity:1;stroke:none;font-family:Open Sans;-inkscape-font-specification:Open Sans"><flowRegion id="flowRegion3802"><rect id="rect3804" width="13.661" height="14.286" x="15.893" y="18.179"/></flowRegion><flowPara id="flowPara3806"/></flowRoot><flowRoot id="flowRoot3859" xml:space="preserve" style="fill:#000;stroke:none;stroke-opacity:1;stroke-width:1px;stroke-linejoin:miter;stroke-linecap:butt;fill-opacity:1;font-family:Open Sans;font-style:normal;font-weight:400;font-size:10px;line-height:125%;letter-spacing:0;word-spacing:0;-inkscape-font-specification:Open Sans;font-stretch:normal;font-variant:normal"><flowRegion id="flowRegion3861"><rect id="rect3863" width="2.21" height="12.311" x="24.433" y="11.653"/></flowRegion><flowPara id="flowPara3865"/></flowRoot><path style="fill:#fff;fill-opacity:1;stroke:none;opacity:.1" id="path3891" d="M 20 0 C 8.954305 3.5504007e-015 -3.1066486e-017 8.954305 0 20 C 0 31.045695 8.954305 40 20 40 C 31.045695 40 40 31.045695 40 20 C 40 8.954305 31.045695 -3.5837802e-015 20 0 z M 20 1.25 C 30.355339 1.25 38.75 9.644661 38.75 20 C 38.75 30.355339 30.355339 38.75 20 38.75 C 9.6446609 38.75 1.25 30.355339 1.25 20 C 1.25 9.644661 9.6446609 1.25 20 1.25 z" transform="translate(0,1012.3622)"/></g></svg>