<svg xmlns="http://www.w3.org/2000/svg" xmlns:svg="http://www.w3.org/2000/svg" id="svg2" width="40" height="40" version="1.1"><metadata id="metadata7"/><g id="layer1" transform="translate(0,-1012.3622)"><g id="g3773" transform="translate(0.62890335,0.75024509)"><path id="path3766" d="m 17,1013.3622 c -8.836556,0 -16,7.1634 -16,16 0,8.8366 7.163444,16 16,16 8.836556,0 16,-7.1634 16,-16 0,-8.8366 -7.163444,-16 -16,-16 z m 0,6.5 c 5.246705,0 9.5,4.2533 9.5,9.5 0,5.2467 -4.253295,9.5 -9.5,9.5 -5.246705,0 -9.5,-4.2533 -9.5,-9.5 0,-5.2467 4.253295,-9.5 9.5,-9.5 z" style="opacity:.5;fill:#fff;fill-opacity:1;stroke:none"/><rect id="rect3771" width="6" height="15" x="-718.677" y="752.618" ry="2.679" transform="matrix(0.70710678,-0.70710678,0.70710678,0.70710678,0,0)" style="fill:#fff;fill-opacity:1;stroke:none"/></g><flowRoot id="flowRoot3784" transform="translate(18.592978,1044.0605)" xml:space="preserve" style="font-size:20px;font-style:normal;font-variant:normal;font-weight:400;font-stretch:normal;line-height:125%;letter-spacing:0;word-spacing:0;fill:#fff;fill-opacity:1;stroke:none;font-family:Open Sans;-inkscape-font-specification:Open Sans;opacity:.9"><flowRegion id="flowRegion3786"><rect id="rect3788" width="40.184" height="21.292" x="-6.504" y="-23.488" style="font-size:20px;fill:#fff;fill-opacity:1"/></flowRegion><flowPara id="flowPara3790" style="font-size:20px;font-style:normal;font-variant:normal;font-weight:400;font-stretch:normal;font-family:Sans;-inkscape-font-specification:Sans;fill:#fff;fill-opacity:1">#</flowPara></flowRoot></g></svg>