<svg xmlns="http://www.w3.org/2000/svg" xmlns:svg="http://www.w3.org/2000/svg" id="svg2" width="234" height="264" version="1.1"><metadata id="metadata7"/><g id="layer1" transform="translate(0,-788.36218)"><path style="font-size:397.98751831px;font-style:normal;font-variant:normal;font-weight:400;font-stretch:normal;text-align:start;line-height:125%;letter-spacing:0;word-spacing:0;writing-mode:lr-tb;text-anchor:start;fill:#fff;fill-opacity:1;stroke:none;font-family:Sans;-inkscape-font-specification:Sans" id="text3974" d="M 54.375 0 L 56.125 48.5 L 0 61.96875 L 0 66.90625 L 5.65625 90.40625 L 57.25 78 L 59.75 149.96875 L 22.15625 159 L 28.9375 187.15625 L 60.84375 179.46875 L 63.78125 263.90625 L 92.125 257.09375 L 89.1875 172.65625 L 148.53125 158.375 L 151.625 242.78125 L 179.96875 235.96875 L 177.0625 151.53125 L 234 137.84375 L 234 132.34375 L 228.46875 109.375 L 175.96875 122 L 173.625 50 L 211.96875 40.78125 L 205.21875 12.625 L 172.53125 20.5 L 171.78125 0 L 143 0 L 144 27.375 L 84.46875 41.6875 L 82.96875 0 L 54.375 0 z M 145.09375 56.875 L 147.4375 128.875 L 88.09375 143.15625 L 85.59375 71.1875 L 145.09375 56.875 z" transform="translate(0,788.36218)"/></g></svg>